# xmcd
#
# Track frame offsets:
#	150
#	15647
#	33562
#	54467
#	72842
#	86712
#	106007
#	120687
#	141287
#	157547
#	184035
#	203262
#	216932
#
# Disc length: 3212 seconds
#
# Revision: 1
# Processed by: cddbd v1.4PL0 Copyright (c) Steve Scherf et al.
# Submitted via: audiograbber 1.80
#
DISCID=a50c8a0d
DTITLE=Kaye Bohler - Men and Music
DYEAR=1900
DGENRE=
TTITLE0=Fair Weather Man
TTITLE1=Men and Music
TTITLE2=Just Another Woman
TTITLE3=I Want to Know
TTITLE4=Need Some Good Loving
TTITLE5=Provider
TTITLE6=Wrong Man Blues
TTITLE7=One Man Woman
TTITLE8=My Resignation
TTITLE9=Waiting for My Time to Come
TTITLE10=Life is Just a Struggle
TTITLE11=Man That's 25
TTITLE12=I Know My Dreams
EXTD=
EXTT0=
EXTT1=
EXTT2=
EXTT3=
EXTT4=
EXTT5=
EXTT6=
EXTT7=
EXTT8=
EXTT9=
EXTT10=
EXTT11=
EXTT12=
PLAYORDER=
